HIERARCHY
ROOT ui
{
	 OFFSET 0 0 0
	 CHANNELS 3 XPosition YPosition Z Position
	 EndSite
	 {
	 OFFSET 0 -1 0
	 }
}
ROOT li
{
	 OFFSET 0 0 0
	 CHANNELS 3 XPosition YPosition Z Position
	 EndSite
	 {
	 OFFSET 0 -1 0
	 }
}
ROOT ul
{
	 OFFSET 0 0 0
	 CHANNELS 3 XPosition YPosition Z Position
	 EndSite
	 {
	 OFFSET 0 -1 0
	 }
}
ROOT ll
{
	 OFFSET 0 0 0
	 CHANNELS 3 XPosition YPosition Z Position
	 EndSite
	 {
	 OFFSET 0 -1 0
	 }
}
ROOT tt
{
	 OFFSET 0 0 0
	 CHANNELS 3 XPosition YPosition Z Position
	 EndSite
	 {
	 OFFSET 0 -1 0
	 }
}
ROOT tb
{
	 OFFSET 0 0 0
	 CHANNELS 3 XPosition YPosition Z Position
	 EndSite
	 {
	 OFFSET 0 -1 0
	 }
}
ROOT td
{
	 OFFSET 0 0 0
	 CHANNELS 3 XPosition YPosition Z Position
	 EndSite
	 {
	 OFFSET 0 -1 0
	 }
}
ROOT v
{
	 OFFSET 0 0 0
	 CHANNELS 3 XPosition YPosition Z Position
	 EndSite
	 {
	 OFFSET 0 -1 0
	 }
}
ROOT bn
{
	 OFFSET 0 0 0
	 CHANNELS 3 XPosition YPosition Z Position
	 EndSite
	 {
	 OFFSET 0 -1 0
	 }
}
MOTION
Frames: 10
Frame Time: 0.002
-0.006423852920532227	5.877860188484192E-4	0		0.59951611328125	-2.50020068359375	0		-0.9354163818359374	0.1361419677734375	0		-0.7068123779296875	-2.638775146484375	0		1.4894794921875	-0.9119329833984375	0		3.111453125	-0.926316650390625	0		4.5269013671875	-0.4614096984863281	0		5.9543115234375	0.3843566589355469	0		-0.16253361511230469	5.9377578125	0		
-0.006555159091949463	7.42874026298523E-4	0		0.5692542114257813	-2.501599609375	0		-1.009532958984375	0.13749632263183595	0		-0.6731348876953125	-2.6441240234375	0		1.4893106689453126	-0.9118394165039062	0		3.105409912109375	-0.9181966552734375	0		4.51957958984375	-0.4723299255371094	0		5.95391357421875	0.3662687683105469	0		-0.1624207000732422	5.93791943359375	0		
-0.009702548980712891	-0.002064289093017578	0		0.5690448608398437	-2.501479248046875	0		-0.93563671875	0.13652091979980469	0		-0.7103301391601563	-2.642367919921875	0		1.4981220703125	-0.9149004516601562	0		3.125873291015625	-0.9435139770507812	0		4.52222216796875	-0.48742678833007813	0		5.94998681640625	0.3762165832519531	0		-0.16127899169921875	5.9370556640625	0		
-0.009760912895202636	-0.0019285809993743897	0		0.5548585205078125	-2.50214892578125	0		-1.0037592163085938	0.13277244567871094	0		-0.66365673828125	-2.651940673828125	0		1.506178955078125	-0.9049609375	0		3.114026123046875	-0.9273338623046875	0		4.5270146484375	-0.49557559204101564	0		5.9589287109375	0.3749386901855469	0		-0.11280429077148438	5.95343896484375	0		
0.07027303314208984	-6.866099685430526E-5	0		0.5718294677734375	-2.496319091796875	0		-0.9996935424804687	0.13688211059570313	0		-0.7096058959960938	-2.640056640625	0		1.50633837890625	-0.891907958984375	0		3.1226611328125	-0.9474953002929688	0		4.5259404296875	-0.4986478271484375	0		5.96694189453125	0.37465582275390624	0		-0.11252578735351562	5.95356982421875	0		
-0.00665598201751709	0.0012675700187683105	0		0.5628970336914062	-2.488087890625	0		-0.9356177978515625	0.13703204345703124	0		-0.6886602172851563	-2.63923828125	0		1.503308837890625	-0.8948162231445312	0		3.116803955078125	-0.9394362182617187	0		4.52773876953125	-0.5137813110351562	0		5.95318212890625	0.38470285034179685	0		-0.11217391967773438	5.95369287109375	0		
0.06740035247802735	-0.0038006269931793214	0		0.5666624145507813	-2.503068359375	0		-1.0175826416015625	0.1314950714111328	0		-0.714771240234375	-2.645679443359375	0		1.5085042724609374	-0.887862548828125	0		3.119694580078125	-0.9515291137695312	0		4.53752294921875	-0.5340553588867187	0		5.94533154296875	0.38464154052734373	0		-0.17518431091308595	5.926814453125	0		
-0.0063334407806396485	0.0014801729917526246	0		0.5667273559570313	-2.502994873046875	0		-1.0092720336914063	0.13852093505859375	0		-0.681797607421875	-2.65106689453125	0		1.50865185546875	-0.8878372192382813	0		3.10277734375	-0.9553141479492188	0		4.5236103515625	-0.538960693359375	0		5.95423974609375	0.3652985229492188	0		-0.15951422119140626	5.93768505859375	0		
-0.00913517665863037	-0.0013742860555648803	0		0.5459904174804687	-2.493592041015625	0		-0.9971807861328125	0.1284789581298828	0		-0.7146047973632812	-2.645406494140625	0		1.5180108642578125	-0.8779642333984375	0		3.120602783203125	-0.978663818359375	0		4.52969921875	-0.547193603515625	0		5.9596484375	0.3740052490234375	0		-0.10872647857666015	5.95198681640625	0		
0.0013091529607772827	0.008556248664855957	0		0.5741422119140625	-2.493978515625	0		-0.992825439453125	0.13255805969238282	0		-0.6734143676757812	-2.64293701171875	0		1.526426025390625	-0.8670809936523437	0		3.10835302734375	-0.94652880859375	0		4.534810546875	-0.5564159545898437	0		5.95995263671875	0.3737879028320312	0		-0.1412246856689453	5.94661572265625	0		
